<?xml version="1.0" encoding="utf-8"?>
<!-- Generator: Adobe Illustrator 27.5.0, SVG Export Plug-In . SVG Version: 6.00 Build 0)  -->
<svg version="1.1" xmlns="http://www.w3.org/2000/svg" xmlns:xlink="http://www.w3.org/1999/xlink" x="0px" y="0px"
	 viewBox="0 0 500 500" style="enable-background:new 0 0 500 500;" xml:space="preserve">
<g id="Background_Simple">
	<g>
		<path style="fill:#C6FF00;" d="M328.295,53.28c0,0-72.545-21.361-144.18,21.845c-71.635,43.206-108.167,123.78-139.51,188.426
			c-31.342,64.646-13.965,127.981,40.325,154.581c54.29,26.6,91.623-18.38,168.069-24.238c76.446-5.858,96.933,3.67,160.631-41.089
			c63.698-44.759,75.811-143.667,26.26-213.976S328.295,53.28,328.295,53.28z"/>
		<path style="opacity:0.7;fill:#FFFFFF;" d="M328.295,53.28c0,0-72.545-21.361-144.18,21.845
			c-71.635,43.206-108.167,123.78-139.51,188.426c-31.342,64.646-13.965,127.981,40.325,154.581
			c54.29,26.6,91.623-18.38,168.069-24.238c76.446-5.858,96.933,3.67,160.631-41.089c63.698-44.759,75.811-143.667,26.26-213.976
			S328.295,53.28,328.295,53.28z"/>
	</g>
</g>
<g id="TV">
	<g>
		
			<rect id="XMLID_150_" x="244.337" y="234.449" style="fill:#263238;stroke:#263238;stroke-linecap:round;stroke-linejoin:round;stroke-miterlimit:10;" width="18.908" height="20.934"/>
		
			<rect id="XMLID_149_" x="133.255" y="108.145" style="fill:#263238;stroke:#263238;stroke-linecap:round;stroke-linejoin:round;stroke-miterlimit:10;" width="241.074" height="128.015"/>
		<g>
			<defs>
				<rect id="XMLID_146_" x="139.021" y="111.207" width="229.541" height="121.891"/>
			</defs>
			<use xlink:href="#XMLID_146_"  style="overflow:visible;fill:#FFFFFF;"/>
			<clipPath id="XMLID_00000005947445528374153610000007825325604502009227_">
				<use xlink:href="#XMLID_146_"  style="overflow:visible;"/>
			</clipPath>
			<g style="clip-path:url(#XMLID_00000005947445528374153610000007825325604502009227_);">
				
					<line style="fill:none;stroke:#263238;stroke-linecap:round;stroke-linejoin:round;stroke-miterlimit:10;" x1="358.569" y1="150.818" x2="300.543" y2="208.844"/>
				
					<line style="fill:none;stroke:#263238;stroke-linecap:round;stroke-linejoin:round;stroke-miterlimit:10;" x1="350.915" y1="172.794" x2="300.543" y2="223.166"/>
				
					<line style="fill:none;stroke:#263238;stroke-linecap:round;stroke-linejoin:round;stroke-miterlimit:10;" x1="358.569" y1="165.14" x2="355.112" y2="168.596"/>
			</g>
			<g style="clip-path:url(#XMLID_00000005947445528374153610000007825325604502009227_);">
				
					<line style="fill:none;stroke:#263238;stroke-linecap:round;stroke-linejoin:round;stroke-miterlimit:10;" x1="220.459" y1="187.033" x2="162.433" y2="245.059"/>
				
					<line style="fill:none;stroke:#263238;stroke-linecap:round;stroke-linejoin:round;stroke-miterlimit:10;" x1="212.804" y1="209.009" x2="162.433" y2="259.381"/>
				
					<line style="fill:none;stroke:#263238;stroke-linecap:round;stroke-linejoin:round;stroke-miterlimit:10;" x1="220.459" y1="201.355" x2="217.002" y2="204.811"/>
			</g>
			<g style="clip-path:url(#XMLID_00000005947445528374153610000007825325604502009227_);">
				
					<line style="fill:none;stroke:#263238;stroke-linecap:round;stroke-linejoin:round;stroke-miterlimit:10;" x1="293.547" y1="73.779" x2="235.521" y2="131.805"/>
				
					<line style="fill:none;stroke:#263238;stroke-linecap:round;stroke-linejoin:round;stroke-miterlimit:10;" x1="285.893" y1="95.755" x2="235.521" y2="146.127"/>
				
					<line style="fill:none;stroke:#263238;stroke-linecap:round;stroke-linejoin:round;stroke-miterlimit:10;" x1="293.547" y1="88.101" x2="290.09" y2="91.557"/>
			</g>
			<g id="XMLID_144_" style="clip-path:url(#XMLID_00000005947445528374153610000007825325604502009227_);">
				
					<polygon id="XMLID_143_" style="fill:#FFFFFF;stroke:#263238;stroke-linecap:round;stroke-linejoin:round;stroke-miterlimit:10;" points="
					287.534,177.704 279.219,183.184 279.219,232.32 320.039,232.32 320.039,182.617 311.157,177.137 				"/>
				
					<polygon id="XMLID_142_" style="fill:#C6FF00;stroke:#263238;stroke-linecap:round;stroke-linejoin:round;stroke-miterlimit:10;" points="
					295.283,187.909 299.251,194.901 293.771,223.626 300.385,230.997 307.378,222.682 301.897,194.523 307,187.72 300.574,179.972 
									"/>
				
					<polygon id="XMLID_140_" style="fill:#A3A3A3;stroke:#263238;stroke-linecap:round;stroke-linejoin:round;stroke-miterlimit:10;" points="
					289.802,165.42 289.802,176.759 300.196,187.153 311.157,176.381 311.157,166.176 				"/>
				<path style="fill:#263238;stroke:#263238;stroke-linecap:round;stroke-linejoin:round;stroke-miterlimit:10;" d="
					M289.802,170.333c0.697,0.705,1.448,1.382,2.268,1.996c5.417,4.063,13.404,4.32,19.087-0.014v-6.139l-21.355-0.756V170.333z"/>
				<g id="XMLID_137_">
					
						<path id="XMLID_129_" style="fill:#A3A3A3;stroke:#263238;stroke-linecap:round;stroke-linejoin:round;stroke-miterlimit:10;" d="
						M282.243,125.545v19.654c0,0-4.913-3.024-6.425,2.457c-1.512,5.48,2.268,10.205,4.347,10.394s3.213-0.378,3.213-0.378
						s2.646,7.748,8.693,12.284c6.047,4.536,15.307,4.346,20.977-1.701c3.748-3.998,6.614-11.15,6.614-11.15
						s5.292,2.268,6.992-2.646c2.386-6.893-0.378-9.26-2.079-10.016c-1.701-0.756-4.724,0.189-4.724,0.189s1.323-12.851,0-18.331
						c-1.323-5.48-13.607-8.504-20.599-8.504C292.259,117.797,283.188,122.899,282.243,125.545z"/>
					
						<path id="XMLID_138_" style="fill:#263238;stroke:#263238;stroke-linecap:round;stroke-linejoin:round;stroke-miterlimit:10;" d="
						M319.85,126.301c-1.323-5.48-13.607-8.504-20.599-8.504c-6.992,0-16.063,5.102-17.008,7.748v19.654h2.646
						c0,0-0.945-5.103,0.378-7.937c1.323-2.835,2.646-3.591,2.835-5.292c0.189-1.701-1.512-5.858-1.512-5.858h30.804
						c0,0-2.079,4.347-1.134,6.425c0.945,2.079,2.079,3.78,2.079,4.725s0,7.181,0,7.181h1.512c0,0,0.01-0.014,0.022-0.031
						C320.036,142.72,321.073,131.366,319.85,126.301z"/>
					<g id="XMLID_135_">
						
							<path id="XMLID_131_" style="fill:none;stroke:#263238;stroke-linecap:round;stroke-linejoin:round;stroke-miterlimit:10;" d="
							M298.495,146.333c0,0-2.268,3.024-0.567,5.858c1.701,2.835,5.858,2.835,7.937,0.567c2.079-2.268,0-5.291-0.756-6.614"/>
						
							<path id="XMLID_127_" style="fill:#263238;stroke:#263238;stroke-linecap:round;stroke-linejoin:round;stroke-miterlimit:10;" d="
							M303.409,159.373c0,0.939-0.55,1.701-1.228,1.701c-0.678,0-1.228-0.761-1.228-1.701c0-0.939,0.55-1.701,1.228-1.701
							C302.859,157.672,303.409,158.433,303.409,159.373z"/>
						<ellipse id="XMLID_132_" style="fill:#263238;" cx="293.109" cy="143.026" rx="1.228" ry="1.984"/>
						<path id="XMLID_134_" style="fill:#263238;" d="M311.441,143.026c0,1.096-0.55,1.984-1.228,1.984
							c-0.678,0-1.228-0.888-1.228-1.984s0.55-1.984,1.228-1.984C310.891,141.041,311.441,141.93,311.441,143.026z"/>
						
							<path id="XMLID_133_" style="fill:#263238;stroke:#263238;stroke-linecap:round;stroke-linejoin:round;stroke-miterlimit:10;" d="
							M296.147,139.718h-5.963c-0.419,0-0.759-0.34-0.759-0.759v-0.371c0-0.419,0.34-0.759,0.759-0.759h5.963
							c0.419,0,0.759,0.34,0.759,0.759v0.371C296.906,139.378,296.566,139.718,296.147,139.718z"/>
						
							<path id="XMLID_136_" style="fill:#263238;stroke:#263238;stroke-linecap:round;stroke-linejoin:round;stroke-miterlimit:10;" d="
							M312.288,139.718h-5.963c-0.419,0-0.759-0.34-0.759-0.759v-0.371c0-0.419,0.34-0.759,0.759-0.759h5.963
							c0.419,0,0.759,0.34,0.759,0.759v0.371C313.047,139.378,312.707,139.718,312.288,139.718z"/>
					</g>
				</g>
				
					<polygon id="XMLID_139_" style="fill:#FFFFFF;stroke:#263238;stroke-linecap:round;stroke-linejoin:round;stroke-miterlimit:10;" points="
					300.196,187.153 290.558,195.09 287.534,177.704 289.802,176.759 				"/>
				
					<polygon id="XMLID_141_" style="fill:#FFFFFF;stroke:#263238;stroke-linecap:round;stroke-linejoin:round;stroke-miterlimit:10;" points="
					300.196,187.153 311.724,195.846 314.181,178.838 311.157,176.381 				"/>
				
					<polygon id="XMLID_145_" style="fill:#263238;stroke:#263238;stroke-linecap:round;stroke-linejoin:round;stroke-miterlimit:10;" points="
					288.668,176.948 300.385,229.107 313.047,177.326 341.205,191.499 349.332,232.887 251.061,232.887 263.156,189.61 				"/>
			</g>
			<polygon style="clip-path:url(#XMLID_00000005947445528374153610000007825325604502009227_);fill:#C6FF00;" points="
				264.246,150.324 136.341,150.324 136.341,125.139 270.666,125.139 			"/>
			<g style="clip-path:url(#XMLID_00000005947445528374153610000007825325604502009227_);">
				<path style="fill:#263238;" d="M159.825,137.197c1.482,0.741,2.177,1.992,2.177,3.753c0,3.15-2.432,4.54-5.536,4.54h-5.884
					c-0.255,0-0.394-0.139-0.394-0.394v-15.427c0-0.255,0.139-0.394,0.394-0.394h5.698c3.452,0,5.49,1.297,5.49,4.447
					c0,1.621-0.672,2.664-1.946,3.29C159.733,137.058,159.733,137.151,159.825,137.197z M153.455,132.217v3.567
					c0,0.093,0.046,0.139,0.139,0.139h2.687c1.459,0,2.293-0.718,2.293-1.899c0-1.205-0.834-1.946-2.293-1.946h-2.687
					C153.501,132.078,153.455,132.124,153.455,132.217z M158.736,140.625c0-1.274-0.834-2.038-2.293-2.038h-2.849
					c-0.07,0-0.139,0.046-0.139,0.139v3.799c0,0.093,0.046,0.139,0.139,0.139h2.872
					C157.902,142.664,158.736,141.899,158.736,140.625z"/>
				<path style="fill:#263238;" d="M173.077,145.189l-2.849-6.301c-0.023-0.069-0.093-0.116-0.163-0.116h-2.107
					c-0.093,0-0.139,0.046-0.139,0.139v6.185c0,0.255-0.139,0.394-0.394,0.394h-2.479c-0.255,0-0.394-0.139-0.394-0.394v-15.45
					c0-0.255,0.139-0.394,0.394-0.394h6.509c2.988,0,4.957,1.969,4.957,4.888c0,2.108-1.135,3.683-2.965,4.309
					c-0.093,0.023-0.116,0.116-0.07,0.185l3.058,6.393c0.139,0.255,0.023,0.464-0.278,0.464h-2.618
					C173.333,145.49,173.171,145.374,173.077,145.189z M167.819,132.217v3.891c0,0.069,0.046,0.139,0.139,0.139h3.011
					c1.297,0,2.201-0.834,2.201-2.062c0-1.251-0.904-2.108-2.201-2.108h-3.011C167.866,132.078,167.819,132.124,167.819,132.217z"/>
				<path style="fill:#263238;" d="M189.643,132.078h-7.459c-0.069,0-0.139,0.046-0.139,0.139v3.544
					c0,0.093,0.046,0.139,0.139,0.139h4.842c0.255,0,0.394,0.139,0.394,0.394v2.015c0,0.255-0.139,0.394-0.394,0.394h-4.842
					c-0.069,0-0.139,0.046-0.139,0.139v3.706c0,0.069,0.046,0.139,0.139,0.139h7.459c0.255,0,0.394,0.139,0.394,0.394v2.015
					c0,0.255-0.139,0.394-0.394,0.394h-10.47c-0.255,0-0.394-0.139-0.394-0.394v-15.427c0-0.255,0.139-0.394,0.394-0.394h10.47
					c0.255,0,0.394,0.139,0.394,0.394v2.015C190.036,131.939,189.897,132.078,189.643,132.078z"/>
				<path style="fill:#263238;" d="M202.293,145.166l-0.649-2.154c-0.023-0.093-0.069-0.116-0.139-0.116h-5.675
					c-0.069,0-0.116,0.023-0.139,0.116l-0.648,2.154c-0.07,0.208-0.209,0.324-0.44,0.324h-2.687c-0.278,0-0.417-0.185-0.324-0.44
					l4.934-15.45c0.069-0.209,0.208-0.325,0.44-0.325h3.405c0.231,0,0.37,0.116,0.44,0.325l4.934,15.45
					c0.093,0.255-0.046,0.44-0.324,0.44h-2.687C202.501,145.49,202.362,145.374,202.293,145.166z M196.618,140.37h4.1
					c0.093,0,0.139-0.046,0.116-0.162l-2.084-7.065c-0.046-0.116-0.139-0.116-0.186,0l-2.061,7.065
					C196.479,140.324,196.525,140.37,196.618,140.37z"/>
				<path style="fill:#263238;" d="M207.856,145.096v-15.427c0-0.255,0.139-0.394,0.394-0.394h2.479
					c0.255,0,0.393,0.139,0.393,0.394v6.323c0,0.116,0.093,0.162,0.163,0.07l5.281-6.556c0.116-0.162,0.278-0.231,0.486-0.231h2.803
					c0.324,0,0.44,0.208,0.231,0.487l-5.049,6.439c-0.046,0.047-0.046,0.116,0,0.186l5.351,8.64
					c0.162,0.255,0.046,0.464-0.255,0.464h-2.802c-0.209,0-0.348-0.07-0.463-0.255l-4.053-6.579c-0.046-0.093-0.139-0.093-0.209,0
					l-1.413,1.807c-0.046,0.07-0.07,0.093-0.07,0.162v4.471c0,0.255-0.139,0.394-0.393,0.394h-2.479
					C207.994,145.49,207.856,145.351,207.856,145.096z"/>
				<path style="fill:#263238;" d="M222.359,145.096v-15.427c0-0.255,0.139-0.394,0.393-0.394h2.479
					c0.255,0,0.393,0.139,0.393,0.394v15.427c0,0.255-0.139,0.394-0.393,0.394h-2.479
					C222.498,145.49,222.359,145.351,222.359,145.096z"/>
				<path style="fill:#263238;" d="M228.452,145.096v-15.427c0-0.255,0.139-0.394,0.394-0.394h2.386c0.208,0,0.347,0.07,0.463,0.255
					l5.791,9.636c0.07,0.116,0.162,0.093,0.162-0.046v-9.45c0-0.255,0.139-0.394,0.394-0.394h2.432c0.255,0,0.394,0.139,0.394,0.394
					v15.427c0,0.255-0.139,0.394-0.394,0.394h-2.363c-0.208,0-0.348-0.093-0.463-0.278l-5.814-9.729
					c-0.069-0.116-0.162-0.093-0.162,0.046l0.023,9.566c0,0.255-0.139,0.394-0.393,0.394h-2.456
					C228.591,145.49,228.452,145.351,228.452,145.096z"/>
				<path style="fill:#263238;" d="M243.372,139.977v-5.189c0-3.428,2.409-5.698,6.023-5.698c3.59,0,5.976,2.293,5.976,5.235v0.046
					c0,0.255-0.14,0.394-0.395,0.394h-2.478c-0.256,0-0.394-0.093-0.394-0.186v-0.162c0-1.39-1.019-2.525-2.709-2.525
					c-1.668,0-2.757,1.135-2.757,2.802v5.374c0,1.668,1.228,2.802,2.872,2.802c1.598,0,2.64-0.88,2.64-2.409v-1.019
					c0-0.069-0.046-0.139-0.139-0.139h-2.455c-0.256,0-0.395-0.139-0.395-0.394v-1.899c0-0.255,0.139-0.394,0.395-0.394h5.42
					c0.255,0,0.395,0.139,0.395,0.394v2.942c0,3.567-2.386,5.721-5.976,5.721C245.781,145.675,243.372,143.382,243.372,139.977z"/>
			</g>
			<g style="clip-path:url(#XMLID_00000005947445528374153610000007825325604502009227_);">
				<path style="fill:#263238;" d="M150.916,178.86v-23.366c0-0.386,0.21-0.596,0.596-0.596h3.614c0.315,0,0.526,0.105,0.702,0.386
					l8.771,14.595c0.105,0.176,0.246,0.14,0.246-0.07v-14.315c0-0.386,0.21-0.596,0.596-0.596h3.684
					c0.386,0,0.597,0.211,0.597,0.596v23.366c0,0.386-0.211,0.596-0.597,0.596h-3.579c-0.315,0-0.526-0.14-0.701-0.421
					l-8.807-14.736c-0.105-0.176-0.245-0.14-0.245,0.07l0.035,14.49c0,0.386-0.211,0.596-0.597,0.596h-3.719
					C151.127,179.456,150.916,179.246,150.916,178.86z"/>
				<path style="fill:#263238;" d="M190.247,159.142H178.95c-0.105,0-0.211,0.07-0.211,0.21v5.368c0,0.14,0.07,0.211,0.211,0.211
					h7.333c0.386,0,0.596,0.21,0.596,0.596v3.053c0,0.386-0.21,0.596-0.596,0.596h-7.333c-0.105,0-0.211,0.07-0.211,0.211v5.614
					c0,0.105,0.07,0.21,0.211,0.21h11.297c0.386,0,0.597,0.211,0.597,0.596v3.052c0,0.386-0.21,0.596-0.597,0.596h-15.858
					c-0.386,0-0.597-0.21-0.597-0.596v-23.366c0-0.386,0.21-0.596,0.597-0.596h15.858c0.386,0,0.597,0.211,0.597,0.596v3.052
					C190.844,158.931,190.633,159.142,190.247,159.142z"/>
				<path style="fill:#263238;" d="M199.195,178.93l-6.175-23.367c-0.105-0.386,0.106-0.666,0.526-0.666h4
					c0.351,0,0.561,0.175,0.632,0.526l3.298,13.999c0.035,0.175,0.245,0.175,0.281,0l3.158-13.999
					c0.07-0.351,0.281-0.526,0.631-0.526h3.965c0.351,0,0.596,0.175,0.667,0.526l3.438,13.999c0.035,0.21,0.21,0.175,0.245,0
					l3.157-13.999c0.07-0.351,0.281-0.526,0.632-0.526h3.824c0.421,0,0.596,0.281,0.491,0.666l-5.649,23.367
					c-0.07,0.351-0.316,0.526-0.667,0.526h-3.86c-0.351,0-0.596-0.176-0.667-0.526l-3.508-14.911c-0.035-0.175-0.246-0.21-0.281,0
					l-3.263,14.911c-0.07,0.351-0.281,0.526-0.632,0.526h-3.578C199.51,179.456,199.265,179.246,199.195,178.93z"/>
				<path style="fill:#263238;" d="M223.194,172.404v-0.597c0-0.386,0.21-0.596,0.596-0.596h3.684c0.386,0,0.596,0.176,0.596,0.456
					v0.491c0,1.789,1.789,3.333,4.631,3.333c2.667,0,3.649-1.333,3.649-2.736c0-1.79-1.79-2.421-5.123-3.649
					c-3.649-1.263-7.859-2.912-7.859-7.543c0-4.316,3.544-6.947,8.561-6.947c5.403,0,9.228,3.018,9.228,7.543v0.351
					c0,0.386-0.211,0.596-0.597,0.596h-3.684c-0.386,0-0.597-0.14-0.597-0.351v-0.351c0-1.825-1.578-3.544-4.526-3.544
					c-2.245,0-3.508,0.982-3.508,2.631c0,1.824,1.543,2.456,5.438,3.824c3.193,1.157,7.613,2.526,7.613,7.298
					c0,4.28-3.473,7.122-8.982,7.122C226.808,179.737,223.194,176.86,223.194,172.404z"/>
			</g>
			
				<rect x="136.341" y="223.907" style="clip-path:url(#XMLID_00000005947445528374153610000007825325604502009227_);fill:#C6FF00;" width="233.092" height="4.444"/>
			
				<use xlink:href="#XMLID_146_"  style="overflow:visible;fill:none;stroke:#263238;stroke-linecap:round;stroke-linejoin:round;stroke-miterlimit:10;"/>
		</g>
		
			<rect id="XMLID_151_" x="223.172" y="252.175" style="fill:#263238;stroke:#263238;stroke-linecap:round;stroke-linejoin:round;stroke-miterlimit:10;" width="61.24" height="4.558"/>
	</g>
</g>
<g id="Picture">
	<g>
		<polygon style="fill:#263238;stroke:#263238;stroke-linecap:round;stroke-linejoin:round;stroke-miterlimit:10;" points="
			90.98,236.914 86.79,256.116 97.962,256.116 		"/>
		<polygon style="fill:#263238;stroke:#263238;stroke-linecap:round;stroke-linejoin:round;stroke-miterlimit:10;" points="
			116.447,217.014 84.676,217.014 94.49,256.465 126.261,256.465 		"/>
		<polygon style="fill:#FFFFFF;stroke:#263238;stroke-linecap:round;stroke-linejoin:round;stroke-miterlimit:10;" points="
			113.921,221.553 89.461,221.553 97.016,251.927 121.477,251.927 		"/>
	</g>
</g>
<g id="Plants">
	<g>
		<path style="fill:#C6FF00;" d="M413.911,239c0,0-23.879-36.415-20.297-44.772c3.582-8.358,16.118,5.97,16.118,5.97
			s-18.506-48.951-5.97-59.697c12.536-10.745,16.715,44.176,16.715,44.176s11.342-31.639,20.297-19.7
			c8.954,11.939-13.73,37.012-13.73,37.012s15.521,0.597,11.342,10.745c-4.179,10.148-15.521,20.894-15.521,20.894L413.911,239z"/>
		<g>
			<path style="fill:none;stroke:#263238;stroke-linecap:round;stroke-linejoin:round;stroke-miterlimit:10;" d="M409.069,231.09
				c0,0-14.84-13.94-15.289-20.236c-0.45-6.296,9.444,1.349,13.491,4.047c4.047,2.698-10.343-17.538-9.893-32.377
				c0.45-14.84,8.544-8.994,11.242-2.698c2.698,6.296,4.047,12.142,5.396,13.491c1.349,1.349,3.598-10.343,9.443-7.195
				c9.345,5.032-5.846,22.035-2.698,25.182c3.148,3.148,10.343-13.491,13.94-4.497c3.598,8.994-11.692,25.182-11.692,25.182"/>
			
				<line style="fill:none;stroke:#263238;stroke-linecap:round;stroke-linejoin:round;stroke-miterlimit:10;" x1="418.512" y1="230.191" x2="407.27" y2="196.464"/>
			
				<line style="fill:none;stroke:#263238;stroke-linecap:round;stroke-linejoin:round;stroke-miterlimit:10;" x1="412.666" y1="213.103" x2="417.163" y2="202.76"/>
			<polyline style="fill:none;stroke:#263238;stroke-linecap:round;stroke-linejoin:round;stroke-miterlimit:10;" points="
				403.672,219.848 416.264,222.996 422.559,218.499 			"/>
		</g>
		<polygon style="fill:#263238;stroke:#263238;stroke-linecap:round;stroke-linejoin:round;stroke-miterlimit:10;" points="
			431.82,228.255 400.18,228.255 403.344,256.312 428.656,256.312 		"/>
	</g>
</g>
<g id="Furniture">
	<g>
		
			<rect id="XMLID_153_" x="74.524" y="256.734" style="fill:#FFFFFF;stroke:#263238;stroke-linecap:round;stroke-linejoin:round;stroke-miterlimit:10;" width="371.476" height="150.881"/>
		
			<rect id="XMLID_155_" x="85.012" y="277.419" style="fill:#FFFFFF;stroke:#263238;stroke-linecap:round;stroke-linejoin:round;stroke-miterlimit:10;" width="171.094" height="52.93"/>
		
			<rect id="XMLID_157_" x="265.184" y="277.419" style="fill:#FFFFFF;stroke:#263238;stroke-linecap:round;stroke-linejoin:round;stroke-miterlimit:10;" width="171.094" height="52.93"/>
		
			<rect id="XMLID_3_" x="85.012" y="342.419" style="fill:#FFFFFF;stroke:#263238;stroke-linecap:round;stroke-linejoin:round;stroke-miterlimit:10;" width="171.094" height="52.93"/>
		
			<rect id="XMLID_2_" x="265.184" y="342.419" style="fill:#FFFFFF;stroke:#263238;stroke-linecap:round;stroke-linejoin:round;stroke-miterlimit:10;" width="171.094" height="52.93"/>
		
			<rect id="XMLID_1_" x="74.524" y="259.579" style="fill:#263238;stroke:#263238;stroke-linecap:round;stroke-linejoin:round;stroke-miterlimit:10;" width="371.476" height="10.774"/>
		
			<rect id="XMLID_154_" x="74.524" y="256.734" style="fill:#5E5E5E;stroke:#263238;stroke-linecap:round;stroke-linejoin:round;stroke-miterlimit:10;" width="371.476" height="10.774"/>
	</g>
</g>
<g id="Character_2">
	<g id="XMLID_147_">
		<path id="XMLID_125_" style="fill:#FFFFFF;stroke:#263238;stroke-linecap:round;stroke-linejoin:round;stroke-miterlimit:10;" d="
			M332.852,266.544c0,0-3.867,6.628-3.867,10.219c0,3.59,1.933,6.628,0.552,9.39c-1.381,2.762-1.657,4.971-0.276,11.6
			c1.381,6.628,3.867,14.638,7.733,14.914c3.867,0.276,10.771,0.276,10.771,0.276s1.933,4.695,0.276,9.39
			c-1.657,4.695-9.943,10.219-17.952,14.638c-8.009,4.419-23.2,9.114-26.514,14.362c-3.314,5.247-6.076,14.086-6.076,14.086h120.694
			c0,0-3.314-8.562-8.009-16.019c-4.695-7.457-13.533-10.219-24.305-17.952c-10.771-7.733-13.257-19.885-13.257-27.895
			c0-8.009-1.105-27.619-12.152-37.009C349.424,257.154,336.167,262.125,332.852,266.544z"/>
		<path id="XMLID_130_" style="fill:#C6FF00;stroke:#263238;stroke-linecap:round;stroke-linejoin:round;stroke-miterlimit:10;" d="
			M410.185,349.4c-4.695-7.457-13.533-10.219-24.305-17.952c-1.733-1.244-3.23-2.612-4.559-4.049
			c-4.737,4.442-12.661,9.667-23.336,9.02c-9.036-0.548-15.014-2.86-18.75-5.052c-2.814,1.96-5.998,3.868-9.145,5.605
			c-8.009,4.419-23.2,9.114-26.514,14.362c-3.314,5.247-6.076,14.086-6.076,14.086h120.694
			C418.194,365.419,414.88,356.857,410.185,349.4z"/>
		<g>
			
				<path id="XMLID_123_" style="fill:#5C5C5C;stroke:#263238;stroke-linecap:round;stroke-linejoin:round;stroke-miterlimit:10;" d="
				M352.738,243.62c0,0-1.657-5.8-10.219-5.248c-8.562,0.552-9.39,9.943-11.6,11.6c-2.21,1.657-8.838,0.552-9.667,8.562
				c-0.829,8.009,3.038,11.324,9.39,11.324s4.695,1.381,6.352,8.838c1.657,7.457,4.143,8.562,8.009,9.114
				c3.867,0.552,6.352,0.276,5.248,4.971c-1.105,4.695-0.829,9.39,2.209,13.257c3.038,3.867,12.152,6.905,20.99,2.762
				c8.838-4.143,14.638-11.876,16.019-30.104c1.381-18.228-3.867-24.857-9.667-27.066c-5.8-2.21-7.181-2.762-8.838-4.971
				c-1.657-2.209,0.276-6.352-6.905-6.352S352.738,243.62,352.738,243.62z"/>
			<path style="fill:none;stroke:#263238;stroke-linecap:round;stroke-linejoin:round;stroke-miterlimit:10;" d="M346.448,282.764
				c1.313,0.589,3.031,0.836,5.34,0.683"/>
			<path style="fill:none;stroke:#263238;stroke-linecap:round;stroke-linejoin:round;stroke-miterlimit:10;" d="M330.297,256.799
				c0,0-5.134,6.588-1.289,8.166c3.845,1.578,9.456-3.868,11.605,4.728c1.005,4.019,1.494,7.42,2.674,9.839"/>
		</g>
		<g>
			
				<path id="XMLID_126_" style="fill:#5C5C5C;stroke:#263238;stroke-linecap:round;stroke-linejoin:round;stroke-miterlimit:10;" d="
				M385.328,276.487c0,0-2.486-12.428-12.705-14.638c-10.219-2.209-12.152,9.114-11.6,20.99c0.552,11.876-2.486,12.705-5.8,22.095
				c-3.314,9.39,8.009,9.39,5.524,15.467c-2.486,6.076-8.009,8.009-4.695,14.085c3.314,6.076,10.495,2.762,9.39,11.048
				c-1.105,8.286,7.733,17.676,18.781,14.086c11.048-3.591,17.4-10.495,17.124-22.924c-0.276-12.428-10.219-18.504-7.733-25.685
				c2.486-7.181,6.352-8.562,3.591-15.743C394.442,288.087,385.88,287.534,385.328,276.487z"/>
			<path style="fill:none;stroke:#263238;stroke-linecap:round;stroke-linejoin:round;stroke-miterlimit:10;" d="M366.421,282.77
				c0.347,1.604,0.892,3.151,1.7,4.546c4.728,8.166-9.026,15.903-6.447,20.201c2.579,4.298,14.614,8.596,7.307,16.333
				s-2.579,12.465,1.719,15.473s-4.728,7.307,0,12.035c4.728,4.728,12.465,8.167,19.771,0.43"/>
			<path style="fill:none;stroke:#263238;stroke-linecap:round;stroke-linejoin:round;stroke-miterlimit:10;" d="M367.691,265.825
				c0,0-0.734,2.275-1.262,5.522"/>
		</g>
	</g>
</g>
<g id="Character_1">
	<g id="XMLID_148_">
		<path id="XMLID_122_" style="fill:#C6FF00;stroke:#263238;stroke-linecap:round;stroke-linejoin:round;stroke-miterlimit:10;" d="
			M139.579,325.096c0,0-29,12.981-35.904,15.743c-6.905,2.762-15.743,4.143-17.952,9.114c-2.21,4.971-3.867,16.295-3.867,16.295
			h155.493c0,0-7.181-18.505-13.257-22.924s-25.685-9.114-34.523-12.428c-8.838-3.314-10.495-4.971-15.19-5.524
			C169.684,324.819,139.579,325.096,139.579,325.096z"/>
		<path id="XMLID_120_" style="fill:#FFFFFF;stroke:#263238;stroke-linecap:round;stroke-linejoin:round;stroke-miterlimit:10;" d="
			M177.969,260.192c0,0,4.971,7.457,4.419,10.771c-0.552,3.314-1.933,5.248-1.105,7.457c0.828,2.209,3.59,3.038,4.143,7.733
			c0.552,4.695,1.657,16.019-0.829,19.057c-2.486,3.038-12.981,5.8-12.981,5.8v10.771l-28.171-1.105v-18.228
			c0,0-3.867-4.971-3.867-17.676c0-12.705,17.124-24.305,23.476-27.342C169.407,254.392,177.969,260.192,177.969,260.192z"/>
		<path id="XMLID_112_" style="fill:#263238;stroke:#263238;stroke-linecap:round;stroke-linejoin:round;stroke-miterlimit:10;" d="
			M176.312,263.506c0,0,3.314,6.629,0.829,9.114c-2.486,2.486-4.971,2.762-4.695,5.8c0.276,3.038,0.552,4.971-1.657,6.352
			c-2.21,1.381-4.143,0.829-4.419,2.486c-0.276,1.657,1.105,14.086-4.143,19.057c-5.247,4.971-17.124,5.524-21.819,0.552
			c-4.695-4.971-15.466-20.438-19.333-31.762c-3.867-11.324,10.495-20.162,13.257-21.267c2.762-1.105,6.629-0.552,7.457-4.695
			c0.829-4.143,2.762-7.733,9.943-9.667c7.181-1.933,12.705,7.733,16.019,6.628c3.314-1.105,7.181-7.181,14.085-3.59
			c6.905,3.59,5.524,14.914,2.21,17.952C180.731,263.506,176.312,263.506,176.312,263.506z"/>
		
			<line id="XMLID_119_" style="fill:#FFFFFF;stroke:#263238;stroke-linecap:round;stroke-linejoin:round;stroke-miterlimit:10;" x1="188.464" y1="273.172" x2="164.988" y2="284.772"/>
		<path id="XMLID_121_" style="fill:none;stroke:#263238;stroke-linecap:round;stroke-linejoin:round;stroke-miterlimit:10;" d="
			M182.112,272.62c0,0,8.01-0.276,7.733,1.381s0,8.009-1.657,9.114c-1.657,1.105-2.762,0.552-2.762,0.552"/>
		<path id="XMLID_118_" style="fill:#C6FF00;stroke:#263238;stroke-linecap:round;stroke-linejoin:round;stroke-miterlimit:10;" d="
			M139.579,317.362l-3.314,9.39l45.295,1.105c0,0-4.143-8.838-8.01-10.219C169.684,316.258,144.827,315.705,139.579,317.362z"/>
		<path id="XMLID_117_" style="fill:#FFFFFF;stroke:#263238;stroke-linecap:round;stroke-linejoin:round;stroke-miterlimit:10;" d="
			M172.998,287.258c0,0-5.524-9.114-9.667-5.248c-4.143,3.867-0.829,11.6,2.486,15.19c3.314,3.59,5.8,1.657,7.457-0.552"/>
	</g>
</g>
<g id="Couch">
	<g>
		<path id="XMLID_124_" style="fill:#707070;" d="M463.11,358.019H45.528c-8.882,0-16.083,7.201-16.083,16.083v66.472h449.747
			v-66.472C479.193,365.219,471.992,358.019,463.11,358.019z"/>
		<path id="XMLID_128_" style="fill:#3D3D3D;" d="M463.11,390.433H45.528c-8.882,0-16.083,7.201-16.083,16.083v54.317h449.747
			v-54.317C479.193,397.634,471.992,390.433,463.11,390.433z"/>
	</g>
</g>
</svg>
