<svg transform="scale(1)" id="_0910_Delete_2" xmlns="http://www.w3.org/2000/svg" viewBox="0 0 500 500" class="show_show__wrapper__graphic__5Waiy "><title>React</title><g id="trash"><path d="M311.27,207.3s-17.35,129.24-22.14,161.55c-4.79,32.31-12.57,47.27-41.29,49.06s-88.56,8.98-100.52-26.93-34.7-183.69-34.7-183.69h198.65Z" fill="#fff" stroke-width="0"></path><path d="M211.47,420.23c-27.31,0-56.55-4.85-64.62-29.08-11.84-35.53-34.5-182.3-34.72-183.78-.02-.14.02-.29.11-.4.1-.11.23-.17.38-.17h198.65c.14,0,.28.06.38.17.1.11.14.25.12.4-.17,1.29-17.41,129.62-22.14,161.56-4.75,32.06-12.21,47.64-41.75,49.49-2.13.13-4.44.3-6.88.47-8.66.61-18.95,1.34-29.53,1.34ZM113.2,207.8c1.57,10.14,23.16,148.71,34.6,183.04,10.95,32.87,62.39,29.23,93.13,27.05,2.45-.17,4.75-.34,6.89-.47,28.85-1.8,36.15-17.12,40.82-48.64,4.57-30.85,20.8-151.61,22.06-160.98H113.2Z" fill="#732a09" stroke-width="0"></path><path d="M330.01,176.72s-4.39,27.73-6.46,32.76-31.99,14.22-97.16,15.7c-65.17,1.48-106.94-4.74-116.12-10.66-9.18-5.92-13.63-29.03-13.63-36.88l233.38-.92Z" fill="#fff" stroke-width="0"></path><path d="M207.16,225.9c-52.73,0-88.26-5.21-97.17-10.97-9.15-5.9-13.86-28.82-13.86-37.3,0-.28.22-.5.5-.5l233.38-.92c.18,0,.29.06.38.17.09.11.14.26.11.4-.18,1.13-4.42,27.84-6.49,32.88-2.38,5.78-34.24,14.57-97.61,16.01-6.63.15-13.05.22-19.23.22ZM97.13,178.14c.17,8.68,4.72,30.36,13.4,35.96,9.59,6.19,53.46,12.01,115.84,10.58,68.26-1.55,95-11.22,96.71-15.39,1.86-4.52,5.69-28.06,6.34-32.07l-232.29.92Z" fill="#732a09" stroke-width="0"></path><path d="M96.63,177.64c-1.14,6.81,54.52,16.68,122.09,14.98s107.88-9.65,111.29-15.9-64.74-14.19-116.69-14.19-111.65,6.08-116.69,15.11Z" fill="#732a09" stroke-width="0"></path><path d="M203.72,193.3c-53.71,0-101.02-7.11-106.96-13.94-.52-.6-.73-1.2-.63-1.8,0-.06.03-.11.06-.16,5.13-9.19,64.7-15.37,117.13-15.37,45.62,0,113.12,6.78,117.08,13.45.29.49.31,1,.04,1.48-3.58,6.56-43.95,14.45-111.71,16.16-5.04.13-10.05.19-15.01.19ZM97.11,177.8c-.01.27.12.58.41.91,2.88,3.32,17.83,7.04,39,9.72,24.45,3.1,53.64,4.41,82.19,3.69,71.57-1.8,107.91-10.23,110.86-15.64.07-.12.11-.26-.03-.49-3.45-5.82-67.54-12.96-116.22-12.96s-110.99,6.06-116.21,14.78Z" fill="#732a09" stroke-width="0"></path><path d="M218.92,388h-3.25c-5.12,0-9.23-4.01-9.36-9.13l-3.06-125.38c-.06-2.54.88-4.95,2.66-6.76,1.78-1.82,4.16-2.82,6.7-2.82h9.37c2.54,0,4.92,1,6.7,2.82,1.78,1.82,2.72,4.22,2.66,6.76l-3.06,125.38c-.12,5.12-4.23,9.13-9.36,9.13ZM212.61,244.9c-2.27,0-4.39.9-5.98,2.52-1.59,1.63-2.43,3.77-2.37,6.04l3.06,125.38c.11,4.57,3.78,8.15,8.36,8.15h3.25c4.57,0,8.24-3.58,8.36-8.15l3.06-125.38c.06-2.27-.79-4.42-2.37-6.04-1.59-1.63-3.71-2.52-5.98-2.52h-9.37Z" fill="#732a09" stroke-width="0"></path><path d="M260.04,386.12h-3.17c-2.62,0-5.04-1.05-6.83-2.96s-2.68-4.4-2.51-7.01l8.21-125.29c.32-4.9,4.42-8.75,9.34-8.75h9.3c2.66,0,5.21,1.14,6.98,3.13s2.62,4.65,2.31,7.29l-14.34,125.29c-.54,4.73-4.54,8.29-9.3,8.29ZM265.07,243.12c-4.39,0-8.05,3.43-8.34,7.81l-8.21,125.29c-.15,2.33.64,4.55,2.24,6.26,1.6,1.71,3.76,2.64,6.1,2.64h3.17c4.25,0,7.82-3.18,8.3-7.41l14.34-125.29c.27-2.36-.48-4.74-2.07-6.51-1.58-1.78-3.86-2.79-6.24-2.79h-9.3Z" fill="#732a09" stroke-width="0"></path><path d="M174.97,386.12h-3.17c-4.76,0-8.76-3.57-9.3-8.29l-14.34-125.29c-.3-2.65.54-5.31,2.31-7.29s4.32-3.13,6.98-3.13h9.3c4.92,0,9.02,3.84,9.34,8.75l8.21,125.29c.17,2.61-.72,5.1-2.51,7.01s-4.21,2.96-6.83,2.96ZM157.45,243.12c-2.38,0-4.65,1.02-6.24,2.79s-2.34,4.15-2.07,6.51l14.34,125.29c.48,4.22,4.05,7.41,8.3,7.41h3.17c2.34,0,4.5-.94,6.1-2.64,1.6-1.71,2.39-3.93,2.24-6.26l-8.21-125.29c-.29-4.38-3.95-7.81-8.34-7.81h-9.3Z" fill="#732a09" stroke-width="0"></path></g><g id="hand"><path d="M319.26,98.38c1.36,8.91,3.82,13.91,17.2,15.37s70.42-1.27,70.42-1.27c0,0,7.92-47.22-5.73-61.14l-72.24,5.72c-3.37.27-6.45,2.19-7.97,5.21-1.08,2.15-1.88,5.09-1.68,9,.55,10.37,0,27.12,0,27.12Z" fill="#f35454" stroke-width="0"></path><path d="M265.66,62.11l-.31-4c-.24-3.09-3.04-5.34-6.11-4.89l-111.33,16.25c-3.12.46-5.18,3.5-4.43,6.57l25.33,103.86,107.22-3.18-10.38-114.61Z" fill="#fff" stroke-width="0"></path><path d="M168.82,180.4c-.23,0-.43-.16-.49-.38l-25.33-103.86c-.39-1.6-.09-3.3.83-4.66.92-1.36,2.38-2.28,4.01-2.52l111.33-16.25c1.63-.23,3.22.2,4.5,1.22,1.28,1.02,2.06,2.49,2.18,4.12l.3,3.99,10.38,114.61c.01.14-.03.27-.12.38-.09.1-.22.16-.36.17l-107.22,3.18h-.01ZM260.04,53.67c-.24,0-.48.02-.72.05l-111.33,16.25c-1.35.2-2.56.96-3.32,2.09s-1.01,2.54-.69,3.86l25.24,103.47,106.29-3.15-10.33-114.08s0,0,0,0l-.31-4c-.1-1.36-.75-2.57-1.81-3.42-.87-.7-1.92-1.06-3.02-1.06Z" fill="#732a09" stroke-width="0"></path><path d="M327.58,99.73s-21.71.58-32.98,3.47c-11.29,2.89-37.04,5.21-43.11,0-5.52-4.73-.31-11.36,16.71-13.85l-2.53-27.24c10.12-6.94,21.7-8.68,35-3.47,13.32,5.22,26.91,7.53,26.91,7.53,6.07,13.6,0,33.56,0,33.56Z" fill="#fff" stroke-width="0"></path><path d="M267.76,106.77c-7.41,0-13.9-.87-16.6-3.19-1.94-1.66-2.67-3.56-2.11-5.5,1.2-4.14,8.14-7.55,18.6-9.15l-2.49-26.77c-.02-.18.07-.36.21-.46,10.72-7.36,22.65-8.54,35.47-3.53,13.11,5.14,26.68,7.48,26.81,7.5.17.03.3.14.37.29,6.07,13.61.08,33.71.02,33.91-.06.21-.25.35-.46.35-.22,0-21.78.61-32.87,3.46-6.45,1.65-17.46,3.09-26.96,3.09ZM266.19,62.36l2.5,26.95c.02.26-.16.5-.43.54-12.16,1.78-17.4,5.56-18.25,8.51-.56,1.94.67,3.5,1.8,4.46,5.71,4.9,31.09,2.86,42.66-.1,10.4-2.67,29.82-3.38,32.72-3.47.75-2.67,5.35-20.33.03-32.63-1.97-.36-14.55-2.73-26.75-7.51-12.39-4.85-23.93-3.75-34.29,3.25ZM327.58,99.73h0,0Z" fill="#732a09" stroke-width="0"></path><path d="M268.2,89.85c-.24,0-.46-.18-.49-.43-.04-.27.15-.53.42-.57.48-.07,1.76-.27,3.39-.53,4.34-.68,10.89-1.71,12.34-1.83.24-.02.52.18.54.46.02.27-.18.52-.46.54-1.41.12-8.2,1.19-12.26,1.82-1.64.26-2.91.46-3.4.53-.02,0-.05,0-.07,0Z" fill="#732a09" stroke-width="0"></path><path d="M161.25,88.67c-.24,0-.46-.18-.49-.43-.04-.27.15-.53.42-.57l78.4-11.61c.27-.05.53.15.57.42.04.27-.15.53-.42.57l-78.4,11.61s-.05,0-.07,0Z" fill="#732a09" stroke-width="0"></path><path d="M164.36,103.34c-.24,0-.45-.17-.49-.42-.05-.27.14-.53.41-.58l52.93-8.91c.27-.05.53.14.58.41.05.27-.14.53-.41.58l-52.93,8.91s-.06,0-.08,0Z" fill="#732a09" stroke-width="0"></path><path d="M166.21,119.37c-.24,0-.46-.18-.49-.43-.04-.27.15-.53.42-.57l68.09-10.24c.27-.04.53.15.57.42.04.27-.15.53-.42.57l-68.09,10.24s-.05,0-.08,0Z" fill="#732a09" stroke-width="0"></path></g><g id="check"><circle cx="301.33" cy="305.49" r="37.31" fill="#f75454" stroke-width="0"></circle><path d="M301.33,343.3c-20.85,0-37.81-16.96-37.81-37.81s16.96-37.81,37.81-37.81,37.81,16.96,37.81,37.81-16.96,37.81-37.81,37.81ZM301.33,268.67c-20.3,0-36.81,16.51-36.81,36.81s16.51,36.81,36.81,36.81,36.81-16.51,36.81-36.81-16.51-36.81-36.81-36.81Z" fill="#732a09" stroke-width="0"></path><path d="M292.1,318.07s-.1,0-.15-.02c-.14-.04-.25-.14-.31-.27l-8.86-19.31c-.12-.25,0-.55.25-.66.25-.12.55,0,.66.25l8.63,18.8,51.56-31.14c.24-.14.54-.07.69.17s.07.54-.17.69l-52.04,31.43c-.08.05-.17.07-.26.07Z" fill="#732a09" stroke-width="0"></path></g></svg>