<svg transform="scale(1)" version="1.1" id="_0341_Inbox_Full" xmlns="http://www.w3.org/2000/svg" xmlns:xlink="http://www.w3.org/1999/xlink" x="0px" y="0px" viewBox="0 0 500 500" xml:space="preserve" class="show_show__wrapper__graphic__5Waiy "><title>React</title><style type="text/css">
	.st0{fill:#FFFFFF;}
	.st1{fill:#097333;}
	.st2{fill:#c2ffc9;}
	.st3{fill:none;}
</style><g id="grass_1_"><path class="st0" id="environtment" d="M274.4,418.8c0,0-16.1-36.3-37.5-43.6s-2.4,30.2-2.4,30.2s-13.6-24.8-28.2-24.8
		s9.3,29.8,9.3,29.8s-11.2-13.7-26.3-11.7s8.8,26.8,8.8,26.8"></path><path class="st1" d="M197.9,425.8c-0.1,0-0.3-0.1-0.4-0.1c-0.7-0.7-16.2-17-13.6-24.3c0.7-1.9,2.4-3,5.1-3.4
		c9.5-1.2,17.5,3.6,22.2,7.5c-4.8-6.7-12.2-18.3-9.9-23.2c0.7-1.5,2.4-2.3,4.8-2.3l0,0c10.1,0,19.6,11.3,24.7,18.8
		c-3.1-7.5-6.9-19-3.2-23.4c1.8-2,4.9-2.3,9.3-0.8c21.4,7.3,37.6,43.5,37.8,43.9c0.1,0.3,0,0.5-0.3,0.6c-0.2,0.1-0.5,0-0.6-0.2
		c-0.2-0.4-16.2-36.2-37.2-43.4c-4-1.4-6.8-1.2-8.2,0.5c-5.2,6,6.3,28.8,6.4,29c0.1,0.3,0,0.5-0.3,0.6c-0.2,0.1-0.5,0-0.6-0.2
		c-0.1-0.2-13.7-24.6-27.8-24.6l0,0c-2,0-3.3,0.6-3.9,1.8c-1.2,2.6,0.7,8.1,5.6,15.9c2.5,3.9,5.1,7.7,8,11.3
		c0.2,0.2,0.1,0.5-0.1,0.7c-0.2,0.2-0.5,0.1-0.7-0.1c-0.1-0.1-11.2-13.4-25.9-11.5c-2.4,0.3-3.8,1.2-4.3,2.7
		c-2.4,6.7,13.2,23.1,13.4,23.3c0.2,0.2,0.2,0.5,0,0.7c0,0,0,0,0,0C198.2,425.7,198,425.8,197.9,425.8z"></path></g><g id="mailbox"><path class="st0" d="M333.7,161.7v54.7H178.4l6.8-98.7h104.4C314,117.7,333.7,137.4,333.7,161.7z"></path><path class="st1" d="M333.7,216.9H178.4c-0.3,0-0.5-0.2-0.5-0.5c0,0,0,0,0,0l6.8-98.7c0-0.3,0.2-0.5,0.5-0.5h104.4
		c24.6,0,44.5,19.9,44.5,44.5v54.7C334.2,216.7,334,216.9,333.7,216.9z M179,215.9h154.2v-54.2c0-24-19.5-43.5-43.5-43.5h-104
		L179,215.9z"></path><path class="st1" d="M180.4,117.7h9.7c21.6,0,39.2,17.5,39.2,39.2l0,0v59.5l0,0h-88l0,0v-59.5C141.2,135.3,158.8,117.7,180.4,117.7
		L180.4,117.7z"></path><path class="st1" d="M229.2,216.9h-88c-0.3,0-0.5-0.2-0.5-0.5v-59.5c0-21.9,17.8-39.6,39.7-39.7h9.7c21.9,0,39.6,17.8,39.7,39.7
		v59.5C229.7,216.7,229.5,216.9,229.2,216.9C229.2,216.9,229.2,216.9,229.2,216.9z M141.7,215.9h87v-59c0-21.3-17.3-38.6-38.6-38.7
		h-9.7c-21.3,0-38.6,17.3-38.7,38.7L141.7,215.9z"></path><path class="st2" d="M147.5,273.5h-20.5c-8.7,0-15.7-7.1-15.7-15.8c0-3.7,1.3-7.3,3.7-10.1l26.3-31.2h88l-26.5,31.4
		C189,264.1,168.8,273.5,147.5,273.5z"></path><path class="st1" d="M147.5,274h-20.5c-9,0-16.2-7.2-16.2-16.2c0-3.8,1.4-7.6,3.8-10.5l26.3-31.2c0.1-0.1,0.2-0.2,0.4-0.2h88
		c0.2,0,0.4,0.1,0.5,0.3c0.1,0.2,0,0.4-0.1,0.5l-26.5,31.4C189.3,264.5,168.9,274,147.5,274z M141.5,216.9l-26.2,31
		c-5.4,6.4-4.6,16,1.8,21.5c2.7,2.3,6.2,3.6,9.8,3.6h20.5c21.2,0,41.2-9.3,54.9-25.5l25.8-30.6H141.5z"></path><rect class="st0" x="253.3" y="103.4" width="5.7" height="48.3"></rect><path class="st1" d="M259,152.2h-5.7c-0.3,0-0.5-0.2-0.5-0.5v-48.3c0-0.3,0.2-0.5,0.5-0.5h5.7c0.3,0,0.5,0.2,0.5,0.5v48.3
		C259.5,152,259.3,152.2,259,152.2z M253.8,151.2h4.7v-47.3h-4.7L253.8,151.2z"></path><path class="st2" d="M262.2,103.4h-8.9v10.5h14.9v-4.5L262.2,103.4z"></path><path class="st1" d="M268.2,114.4h-14.9c-0.3,0-0.5-0.2-0.5-0.5v-10.5c0-0.3,0.2-0.5,0.5-0.5h8.9c0.1,0,0.3,0.1,0.4,0.2l6,6
		c0.1,0.1,0.2,0.2,0.1,0.3v4.5C268.7,114.2,268.5,114.4,268.2,114.4z M253.8,113.4h13.9v-3.8l-5.7-5.7h-8.2L253.8,113.4z"></path><circle class="st2" cx="256.1" cy="151.7" r="6.8"></circle><path class="st1" d="M256.1,159.1c-4,0-7.3-3.3-7.3-7.3c0-4,3.3-7.3,7.3-7.3c4,0,7.3,3.3,7.3,7.3c0,0,0,0,0,0
		C263.5,155.8,260.2,159,256.1,159.1z M256.1,145.4c-3.5,0-6.3,2.8-6.3,6.3c0,3.5,2.8,6.3,6.3,6.3c3.5,0,6.3-2.8,6.3-6.3
		c0,0,0,0,0,0C262.5,148.2,259.6,145.4,256.1,145.4z"></path><rect class="st2" x="246" y="216.4" width="40.6" height="13.8"></rect><path class="st1" d="M286.6,230.7H246c-0.3,0-0.5-0.2-0.5-0.5v-13.8c0-0.3,0.2-0.5,0.5-0.5h40.6c0.3,0,0.5,0.2,0.5,0.5v13.8
		C287.1,230.4,286.9,230.7,286.6,230.7C286.6,230.7,286.6,230.7,286.6,230.7z M246.5,229.7h39.6v-12.8h-39.6L246.5,229.7z"></path><rect class="st0" x="259.4" y="230.2" width="13.7" height="201.6"></rect><path class="st1" d="M273.1,432.3h-13.7c-0.3,0-0.5-0.2-0.5-0.5V230.2c0-0.3,0.2-0.5,0.5-0.5h13.7c0.3,0,0.5,0.2,0.5,0.5v201.6
		C273.6,432.1,273.4,432.3,273.1,432.3z M259.9,431.3h12.7V230.7h-12.7V431.3z"></path></g><g id="grass"><path class="st0" id="environtment-2" d="M241.4,441.2c0,0,16.1-36.3,37.5-43.6s2.4,30.2,2.4,30.2S295,403,309.6,403
		s-9.2,29.8-9.2,29.8s11.2-13.7,26.3-11.7s-8.8,26.8-8.8,26.8"></path><path class="st1" d="M317.9,448.3c-0.1,0-0.2-0.1-0.3-0.1c-0.2-0.2-0.2-0.5,0-0.7c0,0,0,0,0,0c0.2-0.2,15.8-16.5,13.4-23.2
		c-0.5-1.5-2-2.4-4.3-2.7c-14.6-1.9-25.8,11.4-25.9,11.5c-0.2,0.2-0.5,0.3-0.7,0.1c-0.2-0.2-0.3-0.5-0.1-0.7c0,0,0-0.1,0.1-0.1
		c2.9-3.6,5.5-7.4,8-11.3c4.9-7.8,6.8-13.3,5.5-15.9c-0.6-1.2-1.8-1.8-3.9-1.8c-14.1,0-27.7,24.3-27.8,24.6
		c-0.1,0.2-0.4,0.3-0.7,0.2c0,0,0,0,0,0c-0.2-0.1-0.3-0.4-0.2-0.7c0.1-0.2,11.6-23,6.4-29c-1.5-1.7-4.2-1.8-8.2-0.5
		c-21,7.1-37.1,43-37.2,43.4c-0.1,0.2-0.4,0.4-0.6,0.3c0,0,0,0,0,0c-0.3-0.1-0.4-0.4-0.3-0.6c0,0,0-0.1,0-0.1
		c0.2-0.4,16.4-36.6,37.8-43.9c4.4-1.5,7.5-1.3,9.3,0.8c3.8,4.3-0.1,15.9-3.2,23.4c5.1-7.5,14.6-18.8,24.7-18.8c2.4,0,4,0.8,4.8,2.3
		c2.4,4.9-5.1,16.5-9.9,23.2c4.7-3.9,12.7-8.8,22.2-7.5c2.8,0.4,4.5,1.5,5.1,3.4c2.6,7.3-13,23.6-13.6,24.3
		C318.2,448.2,318.1,448.3,317.9,448.3z"></path></g><g id="mail-4"><path class="st0" d="M196.6,158.6c0,0-42.4-23.8-47.9-49.9L107,177.7c0,0,31.6,23.4,89.6,17L196.6,158.6z"></path><path class="st1" d="M176.9,196.3c-16,0.1-31.8-2.3-47-7.2c-15-5-23.1-10.9-23.2-11c-0.2-0.2-0.3-0.4-0.1-0.7l41.6-69
		c0.1-0.2,0.3-0.3,0.5-0.2c0.2,0,0.4,0.2,0.4,0.4c5.4,25.6,47.3,49.3,47.7,49.5c0.2,0.1,0.3,0.3,0.2,0.4v36.1c0,0.3-0.2,0.5-0.4,0.5
		C190.1,195.9,183.5,196.3,176.9,196.3z M107.7,177.6c3.7,2.5,34.9,22.5,88.4,16.6v-35.4c-3.5-2-41.3-24.4-47.6-48.8L107.7,177.6z"></path><path class="st1" d="M160.5,165.6c-0.2,0-0.4-0.1-0.4-0.3c-0.1-0.2-12.9-24.3-11.9-49.3c0-0.3,0.2-0.5,0.5-0.5c0,0,0,0,0,0
		c0.3,0,0.5,0.2,0.5,0.5c-0.9,23.3,10.3,45.8,11.6,48.5c2.9-0.1,25.7-0.7,33.3-4.5c0.3-0.1,0.6,0,0.7,0.2c0.1,0.2,0,0.5-0.2,0.7
		c0,0,0,0,0,0C186.3,165.2,161.6,165.6,160.5,165.6L160.5,165.6z"></path><path class="st1" d="M193.4,191.7c-0.1,0-0.3-0.1-0.4-0.2c-9.7-10.8-16.9-27-17-27.1c-0.1-0.2,0-0.5,0.2-0.7c0,0,0,0,0,0
		c0.3-0.1,0.5,0,0.7,0.2c0.1,0.2,7.2,16.2,16.8,26.9c0.2,0.2,0.2,0.5,0,0.7c0,0,0,0,0,0C193.7,191.7,193.5,191.7,193.4,191.7z"></path><path class="st1" d="M115.4,174.6c-0.2,0-0.4-0.1-0.4-0.3c-0.1-0.2,0-0.5,0.2-0.7c0,0,0,0,0,0c17-7.6,38.4-24.3,38.6-24.5
		c0.2-0.2,0.5-0.2,0.7,0s0.2,0.5,0,0.7c0,0,0,0-0.1,0.1c-0.2,0.2-21.6,17-38.8,24.6C115.5,174.6,115.5,174.6,115.4,174.6z"></path></g><g id="mail-3"><path class="st0" d="M209.3,177.7c-21.5,7.3-60.7,0-60.7,0l6.9,60.3c0,0,37.4-9.7,62.1-28.4L209.3,177.7z"></path><path class="st1" d="M155.6,238.6c-0.1,0-0.2,0-0.3-0.1c-0.1-0.1-0.2-0.2-0.2-0.4l-6.9-60.3c0-0.2,0-0.3,0.2-0.4
		c0.1-0.1,0.3-0.2,0.4-0.1c0.4,0.1,39.3,7.2,60.4,0c0.1-0.1,0.3-0.1,0.4,0c0.1,0.1,0.2,0.2,0.2,0.3l8.3,31.9c0.1,0.2,0,0.4-0.2,0.5
		c-24.4,18.6-61.9,28.4-62.2,28.5L155.6,238.6z M149.2,178.4l6.8,59.1c4.7-1.3,38.4-10.9,61.1-28l-8.1-31
		C189.1,184.8,154.4,179.2,149.2,178.4z"></path><path class="st0" d="M151.8,181.4c0,0,27.4,16.8,34.9,17.3s20.5-17.3,20.5-17.3"></path><path class="st1" d="M187.1,199.2h-0.3c-7.6-0.5-34.1-16.7-35.2-17.4c-0.2-0.1-0.3-0.4-0.2-0.7c0,0,0,0,0,0
		c0.1-0.2,0.5-0.3,0.7-0.2c0.3,0.2,27.4,16.8,34.7,17.3h0.3c7.2,0,19.6-17,19.8-17.1c0.2-0.2,0.5-0.3,0.7-0.1s0.3,0.5,0.1,0.7
		C207.1,182.4,194.8,199.2,187.1,199.2z"></path><path class="st0" d="M214.8,207.9c0,0-12.4-7.4-19.2-13"></path><path class="st1" d="M214.8,208.4c-0.1,0-0.2,0-0.3-0.1c-0.1-0.1-12.5-7.5-19.2-13c-0.2-0.2-0.2-0.5-0.1-0.7s0.5-0.2,0.7-0.1
		c6.7,5.5,19,12.9,19.1,12.9c0.2,0.1,0.3,0.4,0.2,0.7c0,0,0,0,0,0C215.1,208.3,214.9,208.4,214.8,208.4z"></path><path class="st0" d="M158.6,234c7.2-13.6,15.5-40.1,15.5-40.1"></path><path class="st1" d="M158.6,234.5c-0.1,0-0.2,0-0.2-0.1c-0.2-0.1-0.3-0.4-0.2-0.7c0,0,0,0,0,0c7.1-13.4,15.4-39.7,15.5-40
		c0.1-0.3,0.3-0.4,0.6-0.3c0,0,0,0,0,0c0.3,0.1,0.4,0.4,0.3,0.6c0,0,0,0,0,0c-0.1,0.3-8.4,26.7-15.6,40.2
		C159,234.4,158.8,234.5,158.6,234.5z"></path></g><g id="mail-2"><path class="st0" d="M130.9,198.7c12,14.6,42.7,28.5,42.7,28.5l-32.4,56.1c0,0-35-8.6-56.3-35.6L130.9,198.7z"></path><path class="st1" d="M141.2,283.8h-0.1c-0.4-0.1-35.4-9-56.6-35.7c-0.2-0.2-0.2-0.5,0-0.6l46-49.1c0.1-0.1,0.2-0.2,0.4-0.2
		c0.1,0,0.3,0.1,0.4,0.2c11.8,14.3,42.2,28.2,42.5,28.3c0.1,0.1,0.2,0.2,0.3,0.3c0.1,0.1,0.1,0.3,0,0.4l-32.4,56.2
		C141.6,283.8,141.4,283.8,141.2,283.8z M85.6,247.8c19.9,24.8,51.7,34,55.4,35l31.9-55.4c-4-1.9-30.7-14.6-42-27.9L85.6,247.8z"></path><path class="st0" d="M89.8,248.4c19.9-2.6,44.9-8.8,44.9-8.8l-2.6-34"></path><path class="st1" d="M89.8,248.9c-0.2,0-0.5-0.2-0.5-0.4c0-0.3,0.2-0.5,0.4-0.6c18.3-2.4,41.1-7.9,44.4-8.7l-2.6-33.6
		c0-0.3,0.2-0.5,0.5-0.5s0.5,0.2,0.5,0.5l2.6,34c0,0.2-0.1,0.5-0.4,0.5C134.6,240.1,109.6,246.2,89.8,248.9L89.8,248.9z"></path><line class="st3" x1="169.4" y1="228.2" x2="134" y2="229.6"></line><path class="st1" d="M134,230.1c-0.3,0-0.5-0.2-0.5-0.5s0.2-0.5,0.5-0.5l35.4-1.3c0.3,0,0.5,0.2,0.5,0.5c0,0,0,0,0,0
		c0,0.3-0.2,0.5-0.5,0.5c0,0,0,0,0,0L134,230.1z"></path><path class="st0" d="M140,278.1c-13-22-19-35.4-19-35.4"></path><path class="st1" d="M140,278.6c-0.2,0-0.3-0.1-0.4-0.2c-12.8-21.8-19-35.3-19.1-35.4c-0.1-0.2,0-0.5,0.2-0.7
		c0.2-0.1,0.5,0,0.7,0.2c0,0,0,0,0,0.1c0.1,0.1,6.2,13.6,19,35.3c0.1,0.2,0.1,0.5-0.2,0.7C140.2,278.5,140.1,278.6,140,278.6z"></path></g><g id="mail-1"><path class="st0" d="M144.8,147.1c-28.1-13.5-64-38.4-64-38.4l-27.7,63.8l76.2,35.4L144.8,147.1z"></path><path class="st1" d="M129.2,208.4c-0.1,0-0.1,0-0.2-0.1L52.9,173c-0.2-0.1-0.4-0.4-0.2-0.6l27.7-63.8c0.1-0.1,0.2-0.2,0.3-0.3
		c0.1,0,0.3,0,0.4,0.1c0.4,0.2,36.2,25.1,63.9,38.4c0.2,0.1,0.3,0.3,0.3,0.6L129.7,208c0,0.1-0.1,0.3-0.3,0.3
		C129.4,208.4,129.3,208.4,129.2,208.4z M53.7,172.3l75.2,34.9l15.2-59.8c-25.9-12.5-58.8-34.9-63.2-37.9L53.7,172.3z"></path><path class="st0" d="M142.1,149.6c0,0-31.2,7.6-40.8,7.4c0,0-15-29.5-18.2-41"></path><path class="st1" d="M101.7,157.5h-0.4c-0.2,0-0.4-0.1-0.4-0.3c-0.2-0.3-15.1-29.7-18.3-41.1c-0.1-0.3,0.1-0.5,0.3-0.6
		c0.3-0.1,0.5,0.1,0.6,0.3c3,10.7,16.5,37.6,18.1,40.6h0.1c9.8,0,40-7.4,40.4-7.4c0.3-0.1,0.5,0.1,0.6,0.4c0.1,0.3-0.1,0.5-0.4,0.6
		c0,0,0,0,0,0C141,150.4,111.6,157.5,101.7,157.5z"></path><path class="st0" d="M128.2,202.7c-7.3-17.5-14.4-47.1-14.4-47.1"></path><path class="st1" d="M128.2,203.2c-0.2,0-0.4-0.1-0.5-0.3c-7.3-17.3-14.3-46.9-14.4-47.2c-0.1-0.3,0.1-0.5,0.4-0.6c0,0,0,0,0,0
		c0.3-0.1,0.5,0.1,0.6,0.4c0.1,0.3,7.1,29.8,14.4,47c0.1,0.3,0,0.5-0.3,0.7C128.3,203.2,128.2,203.2,128.2,203.2z"></path><path class="st0" d="M57.3,170.4c17.7-9.2,38.9-20.8,38.9-20.8"></path><path class="st1" d="M57.3,170.9c-0.3,0.1-0.6-0.1-0.6-0.4c-0.1-0.3,0.1-0.6,0.4-0.6c17.5-9.1,38.7-20.7,38.9-20.8
		c0.2-0.1,0.5,0,0.7,0.2c0.1,0.2,0,0.5-0.2,0.7c-0.2,0.1-21.5,11.7-38.9,20.8C57.5,170.8,57.4,170.8,57.3,170.9z"></path></g><g id="paperplane"><path class="st2" d="M147.3,61.6l-5.8,11.7c0,0,18.2,17,24.9,21.5c4.3,2.8,8.9,4.9,13.8,6.3l-25.7-36.3L147.3,61.6z"></path><path class="st1" d="M180.2,101.6h-0.1c-4.9-1.5-9.6-3.6-13.9-6.4c-6.7-4.4-24.3-20.8-25-21.5c-0.2-0.2-0.2-0.4-0.1-0.6l5.8-11.7
		c0.1-0.2,0.4-0.3,0.6-0.2l7.2,3.2c0.1,0,0.1,0.1,0.2,0.2l25.7,36.3c0.1,0.2,0.1,0.4,0,0.6C180.5,101.6,180.4,101.6,180.2,101.6z
		 M142.1,73.2c2.3,2.1,18.4,17.1,24.6,21.2c3.8,2.5,8,4.4,12.3,5.8l-24.8-35l-6.6-2.9L142.1,73.2z"></path><path class="st0" d="M147.3,61.6c6.1,16.5,32.9,39.5,32.9,39.5S161.4,68.5,161.7,51L147.3,61.6z"></path><path class="st1" d="M180.2,101.6c-0.1,0-0.2,0-0.3-0.1c-0.3-0.2-27-23.2-33.1-39.7c-0.1-0.2,0-0.4,0.2-0.6l14.4-10.7
		c0.2-0.1,0.4-0.1,0.5,0c0.2,0.1,0.3,0.3,0.3,0.5c-0.2,17.2,18.2,49.6,18.4,49.9c0.1,0.2,0.1,0.5-0.1,0.6
		C180.4,101.6,180.3,101.7,180.2,101.6z M147.9,61.8c5.2,13.4,24,31.2,30.4,37c-4.3-7.9-16.8-32-17.1-46.9L147.9,61.8z"></path><path class="st0" d="M141.9,64.1c-8.4,1-20.3,2.5-20.3,2.5s35.8,30.6,58.6,34.6C180.2,101.1,153.1,84.6,141.9,64.1z"></path><path class="st1" d="M180.2,101.6L180.2,101.6c-22.8-4-58.6-34.4-58.9-34.7c-0.1-0.1-0.2-0.3-0.2-0.5c0.1-0.2,0.2-0.3,0.4-0.3
		c0.1,0,12-1.5,20.4-2.5c0.2,0,0.4,0.1,0.5,0.3c11,20.2,37.8,36.7,38.1,36.9c0.2,0.1,0.3,0.4,0.2,0.6
		C180.6,101.5,180.4,101.6,180.2,101.6z M122.8,66.9c5.4,4.5,34.4,28.1,54.8,33.2c-6.8-4.5-26.7-18.7-36-35.5
		C134.9,65.4,125.9,66.5,122.8,66.9z"></path></g></svg>